<?xml version="1.0" encoding="UTF-8" standalone="no"?>
<svg
   viewBox="-2 5.65 869.53302 857.7724"
   version="1.1"
   id="svg1"
   sodipodi:docname="franceLow.svg"
   width="869.53302"
   height="857.7724"
   inkscape:version="1.4.3 (fcd0343856, 2026-01-01)"
   xmlns:inkscape="http://www.inkscape.org/namespaces/inkscape"
   xmlns:sodipodi="http://sodipodi.sourceforge.net/DTD/sodipodi-0.dtd"
   xmlns="http://www.w3.org/2000/svg"
   xmlns:svg="http://www.w3.org/2000/svg">
  <defs
     id="defs1" />
  <sodipodi:namedview
     id="namedview1"
     pagecolor="#ffffff"
     bordercolor="#000000"
     borderopacity="0.25"
     inkscape:showpageshadow="2"
     inkscape:pageopacity="0.0"
     inkscape:pagecheckerboard="0"
     inkscape:deskcolor="#d1d1d1"
     inkscape:zoom="0.85907936"
     inkscape:cx="480.7472"
     inkscape:cy="473.18096"
     inkscape:window-width="1920"
     inkscape:window-height="1065"
     inkscape:window-x="0"
     inkscape:window-y="0"
     inkscape:window-maximized="1"
     inkscape:current-layer="svg1" />
  <!-- Generated from amCharts geodata | Mercator projection -->
  <path
     d="m 601.38731,760.76609 0.71,-3.63 14.75,-8.36 -2.37,-3.21 3.99,-6.78 8.52,-2.62 2.6,-5.22 -0.67,-7.86 13.57,-11.41 -3.88,-7.13 -5.45,-3.94 1.11,-7.41 -4.82,-7.77 0.08,-5.57 9.24,1.57 2.03,8.02 16.13,-7.5 6.19,7.08 13.59,1.67 1.87,5.52 8.06,3.69 6.58,-7.05 5.41,2.59 -2.06,-2.41 -1.51,-13.49 -9.11,-0.39 -4.21,-3.47 1.83,-11.65 10.45,2.6 -1.14,-6.8 3.41,-6.37 9.48,-3.91 2.52,-9.99 8.31,-0.1 12.24,-9.81 14.86,0.89 -2.14,-13.61 -8,-1.65 1.75,-8.13 6.88,-2.03 2.11,5.03 14.27,-5.1 3.53,1.41 2.84,8.58 4.74,0.53 0.45,10.3 7.53,5.21 4.83,-1.1 9.4,16.85 -7.63,0.58 -2.01,9.69 -5.16,4.19 4.51,16.66 5.61,10.76 12.09,3.21 11.36,8.02 13.71,-3.81 7.01,2.33 3.22,4.41 -4.18,10.24 -5.71,3 -4.69,6.42 2.33,8.39 -25.01,12 -2.35,6.12 -11.06,8.29 -4.38,6.27 -6.82,1.87 -7.87,8.8 0.64,10.42 -8.02,0.96 -4.34,3.52 -7.49,0.6 -17.42,5.98 -13.17,-2.09 -4.46,5.09 -3.44,-6.28 -7.58,-2.6 -0.61,-3.33 -10.1,-3.18 -2.46,1.62 -10.62,-1.66 2.27,-3.84 -4.45,-9.63 -5.4,3.01 -11.95,0.35 -5.35,-9.24 -3.34,-0.62 -9.73,7.7 -12.89,-1.09 0.56,-5.68 -3.84,-2.78 z"
     fill="#dadada"
     stroke="#ffffff"
     stroke-width="0.5"
     id="FR-PAC"
     data-name="Provence-Alpes-Côte d'Azur" />
  <path
     d="m 246.45731,273.74609 15.02,0.89 5.72,6.39 7.26,-0.81 9.48,-6.54 12.65,-1.37 7.63,-4.17 4.06,10.78 6.44,0.58 -0.02,7.73 23.58,-10.71 3.67,2.18 2.43,13.87 9.59,7.35 9.94,-0.58 7.62,6.07 3.56,6.12 -2.15,14.78 2.03,4.6 -5.9,3.93 0.54,6.83 -12.24,11.37 0.7,4.57 -8.85,2.67 -5.37,7.42 -8.53,-4.15 -4.19,7.23 1.84,3.87 -2.63,11.73 -7.04,9.88 -1.52,11.58 -4.17,0.4 -8.19,10.43 -9.12,-5.08 -9.5,3.84 -5.82,-1.66 -6.98,8.51 -16.95,2.67 1.45,8.35 8.9,7.33 -1.43,5.28 6.98,13.05 -2.23,9.85 7.28,13.2 -7.25,6.62 -4.98,1.43 -7.07,-3.43 -6.99,2.67 -2.88,-4.01 -9.46,3.39 -23.55,-2.48 -3.12,-5.97 -9.01,-1.56 -11.02,-7.27 -2.94,-11.26 -6.1,-8.53 -13.01,-12.16 -0.65,-6.61 11.66,-13.71 -12.55,-13.73 -0.34,-9.44 -8.56,3.11 -16.44,-5.65 -0.98,-8.3 6.78,-7.29 9.4,-1.29 14.7,-7.13 -0.01,-9.75 8.38,-6.23 20.97,-1.57 2.54,-5.38 15.65,-6.43 9.46,5.15 6.13,-18.8 9.28,-3.83 -5.68,-26.41 3.75,-6.3 -2.4,-8.65 z"
     fill="#dadada"
     stroke="#ffffff"
     stroke-width="0.5"
     id="FR-PDL"
     data-name="Pays de la Loire" />
  <path
     d="m 629.44731,685.42609 4.82,7.77 -1.11,7.41 5.45,3.94 3.88,7.13 -13.57,11.41 0.67,7.86 -2.6,5.22 -8.52,2.62 -3.99,6.78 2.37,3.21 -14.75,8.36 -0.71,3.63 -6.39,-2.38 -1.87,-6.17 -8.87,0.62 -16.75,13.46 -5.4,1.56 -9.2,10.69 -10.36,-0.6 -11.45,9.31 -3.88,5.88 -5.6,15.39 1.5,2.03 -2.13,19.53 1.19,14.78 6.31,2.3 2.43,7 -6.14,1.22 -3.57,-4.49 -10.91,0.7 -4.77,4.45 -4.37,-0.54 -10.49,5.98 -6.34,1.65 -3.28,-4.82 -11.8,-4.05 -6.79,1.31 -4.69,5.55 -8.16,-1.81 -1.96,-6.41 -13.77,-3.83 0.43,-11.09 -16.19,-3.31 -3.77,4.58 -5.41,-10.59 -12.51,0.97 -6.04,-7.27 -10.26,-0.07 -4.69,-3.41 -9.91,-3.22 -7.47,14.21 -11.71,1.36 -4.18,-3.02 -12.32,-1.17 -11.93,4.75 -7.37,-3.74 -13.43,-11.27 1.71,-14.25 5.97,-5.64 0.4,-4.34 8.38,-5.76 6.53,-15.58 -6.75,-8.2 2.08,-7.13 -3.77,-6.42 -9.51,-0.06 -0.74,-11.53 2.09,-4 2.61,-17.53 15.74,-2.06 9.11,-5.01 7.29,2.26 17.12,-6.03 7.22,2.87 5.11,-3.48 3.36,-7.63 7.03,0.53 2.3,-12.01 -3.95,-4.04 1.8,-6.64 11.07,1.45 -2.92,-7.41 -0.15,-8.58 13.93,-13.78 14.48,-18.44 -2.1,-11.97 8.4,-3.98 6.42,1.35 11.43,10.41 7.09,-5.19 10.24,0.16 1.99,9.66 5.39,8 -2.81,8.68 2.82,5.62 10.38,-3.16 1.72,2.82 8.81,-0.96 5.11,-6.53 2.98,-11.86 8.87,-9.03 8.2,6.32 1.92,8.04 3.27,1.43 -0.02,8.87 3,3.34 4.32,-14.67 5.71,-9.78 6.15,-0.54 9.93,-4.78 7.68,14.5 11.23,-6.55 6,3.58 7.87,11.96 2.83,11 3.32,2.21 2.38,9.25 9.48,12.7 8.53,6.7 2.05,-4.68 6.97,-2.94 7.58,0.25 z"
     fill="#dadada"
     stroke="#ffffff"
     stroke-width="0.5"
     id="FR-OCC"
     data-name="Occitanie" />
  <path
     d="m 233.63731,522.22609 4.97,10.18 -0.51,5.39 -12.83,-12.02 z m -18.23,-20.44 2.4,-5.34 4.82,5.4 8.93,1.34 -2.01,4.07 -9.33,-5.48 z m 255.4,-21.13 1.46,7.42 12.07,6.11 5.6,12.07 -1.05,6.7 3.45,4.93 -3.02,11.68 -11.26,8.5 9.05,11.05 -0.12,6.52 -4.06,4.41 3.78,4.01 -2.5,17.6 -6.28,-3.98 -1.81,7.16 -11.1,10.97 -3.42,20.91 -5.46,2.41 -10.24,-0.16 -7.09,5.19 -11.43,-10.41 -6.42,-1.35 -8.4,3.98 2.1,11.97 -14.48,18.44 -13.93,13.78 0.15,8.58 2.92,7.41 -11.07,-1.45 -1.8,6.64 3.95,4.04 -2.3,12.01 -7.03,-0.53 -3.36,7.63 -5.11,3.48 -7.22,-2.87 -17.12,6.03 -7.29,-2.26 -9.11,5.01 -15.74,2.06 -2.61,17.53 -2.09,4 0.74,11.53 9.51,0.06 3.77,6.42 -2.08,7.13 6.75,8.2 -6.53,15.58 -8.38,5.76 -0.4,4.34 -5.97,5.64 -1.71,14.25 -5.45,4.61 -7.48,-2.59 -3.06,4.51 -8.47,-9.77 -8.72,-6.07 -9.03,-0.2 -11.44,-6.48 -15.38,-6.47 -0.65,6.06 -7.98,-5.48 6.11,-9.25 -0.44,-6.31 -23.35,-6.67 -3.43,-4.03 12.62,-5.5 10.29,-19.81 10.02,-52.32 2.67,-31.14 4.22,-10.79 10.55,1.06 0.16,-4.61 -8.93,-7.47 -6.33,13.46 6.65,-63.02 0.35,-16.92 6.04,-3.46 9.01,6.83 8.56,8.97 9.25,21.05 -3.29,-19.3 -4.51,-12.66 -16.11,-15.48 -12.19,-7.08 -2.14,-8.57 6.94,-1.62 5.44,-19.23 -5.13,-12 -5.24,-1.76 0.41,-6.43 6.03,-4.67 -0.32,-5.5 9.46,-3.39 2.88,4.01 6.99,-2.67 7.07,3.43 4.98,-1.43 7.25,-6.62 -7.28,-13.2 2.23,-9.85 -6.98,-13.05 1.43,-5.28 -8.9,-7.33 -1.45,-8.35 16.95,-2.67 6.98,-8.51 5.82,1.66 9.5,-3.84 9.12,5.08 8.19,-10.43 4.17,-0.4 1.75,4.41 14.93,6.7 -0.79,5.98 9.84,6 4.49,-2.89 12.45,-1.46 0.86,6.91 6.14,5.26 1.27,5.92 6.53,6.08 -1.38,9.52 8.53,9.07 8.33,2.81 4.54,7.15 0.44,6.59 9.07,-3.3 4.11,5.21 7.41,-7.82 10.69,0.8 6.52,-3.7 3.75,3 9.36,-1.68 7.34,3.2 z"
     fill="#dadada"
     stroke="#ffffff"
     stroke-width="0.5"
     id="FR-NAQ"
     data-name="Nouvelle-Aquitaine" />
  <path
     d="m 432.19731,200.16609 -5.44,14.93 -8.95,3.56 0.85,11.26 -2.74,6.96 -6.58,3.8 -1.98,7.45 -7.35,0.33 -6.77,-3.19 -5.81,6.23 -15.1,6.54 2.81,8.2 4.99,2.25 0.94,10.52 -1.74,8.44 -8.48,3.18 -2.15,4.19 2.83,10.59 -7.62,-6.07 -9.94,0.58 -9.59,-7.35 -2.43,-13.87 -3.67,-2.18 -23.58,10.71 0.02,-7.73 -6.44,-0.58 -4.06,-10.78 -7.63,4.17 -12.65,1.37 -9.48,6.54 -7.26,0.81 -5.72,-6.39 -15.02,-0.89 -12.31,-3.61 -6.71,7.58 -9.01,-2.04 -5.59,-14.71 9.77,-0.85 -9.51,-10.23 -1.07,-10.66 1.78,-18.12 -2.34,-11.18 -7.71,-19.77 -6.87,-4.52 -4.39,-29.56 3.44,-3.26 19.42,3.71 4.04,-4.39 13.93,0.09 2.43,9.23 -5.39,6.14 9.56,14.49 13.51,1.02 14.07,4.98 24.18,1.64 11.51,5.38 14.81,-4.53 8.6,-7.87 2.51,-5.31 -6.65,-6.18 9.49,-20.73 8.69,-3.49 16.73,-11.38 12.47,-1.88 12.53,-5.33 3.96,1.15 11.77,-5.6 12.27,-9.94 5,2.57 17.39,15.9 4.94,12.9 -4.86,2.88 -1.13,15.74 6.3,8.14 -5.11,9.93 3.9,11.92 z"
     fill="#dadada"
     stroke="#ffffff"
     stroke-width="0.5"
     id="FR-NOR"
     data-name="Normandie" />
  <path
     d="m 432.19731,200.16609 3.4,5.76 8.61,1.3 13.25,-4.87 10.17,6.05 5.41,-3.6 18.06,10.87 3.31,-2.93 6.76,4.85 15.73,-3.14 13.11,-0.71 0.17,8.82 13.39,8.56 1.03,5.75 6.85,1.99 -5.12,6.93 3.97,4.64 -1.15,10.42 1.98,9.45 -5.96,11.82 1.54,3.51 -10.7,2.58 -13.86,0.53 v 11.04 l -7.38,8.7 -9.24,-0.57 -6.26,4.55 -9.79,-1.76 -2.82,-8.52 -6.25,-3.4 -1.31,-5.63 -7.08,0.34 -6.4,-3.19 -2.65,4.58 -12.79,1.06 0.33,-11.38 -11.77,-6.56 -0.96,-8.79 -5.22,-2.37 -7.16,-8.91 -2.59,-22.93 -4.15,-5.09 -0.85,-11.26 8.95,-3.56 z"
     fill="#dadada"
     stroke="#ffffff"
     stroke-width="0.5"
     id="FR-IDF"
     data-name="Île-de-France" />
  <path
     d="m 601.49731,124.95609 1.43,9.41 -3.16,9.16 2.93,2.39 -8.28,8.18 -5.68,17.71 -0.33,15.11 -7.56,-4.78 -18.66,9.58 6.9,15.87 -8.46,0.87 1.9,10.96 -1.99,7.84 -9.09,11.61 -6.85,-1.99 -1.03,-5.75 -13.39,-8.56 -0.17,-8.82 -13.11,0.71 -15.73,3.14 -6.76,-4.85 -3.31,2.93 -18.06,-10.87 -5.41,3.6 -10.17,-6.05 -13.25,4.87 -8.61,-1.3 -3.4,-5.76 4.61,-6.17 -3.9,-11.92 5.11,-9.93 -6.3,-8.14 1.13,-15.74 4.86,-2.88 -4.94,-12.9 -17.39,-15.9 -5,-2.57 14.24,-20.050002 -3.58,-2.77 3.3,-26.85 -1.62,-19.82 3.42,-8.23 -2.18,-7.15 10.97,-7.77 23.79,-6.43 29.77,-8.99 5.9,15.1 -2.16,10.38 8.25,4.17 4.44,8.87 7.83,3.66 3.09,-6.33 13.28,-4.03 5.89,13.95 3.5,14.08 5.65,3.5 9.57,-3.41 9.5,7.04 -0.11,9.11 12.86,1.83 3.48,2.64 8.21,-3.36 3.47,5.05 8.85,4.06 -3.58,11.410002 5.05,9.82 -4.58,2.09 -1.07,7.55 z"
     fill="#dadada"
     stroke="#ffffff"
     stroke-width="0.5"
     id="FR-HDF"
     data-name="Hauts-de-France" />
  <path
     d="m 795.71731,374.36609 -3.11,-8.92 -5.41,-0.92 2.87,-7.93 -2.2,-6.06 -10,-3.94 -5.35,-6.77 -9.35,-5.34 -2.61,-4.12 -8.62,5.94 -5.97,-7.5 -12.16,1.33 -4.83,-7.21 -13.56,4.19 -5.7,7.28 -10.51,8.34 -0.01,13.55 -18.13,0.79 -4.34,8.57 -15.89,-5.51 -10.64,-11.52 2.23,-4.58 -5.97,-11.31 -7.37,-8.48 -14.36,-2.32 -1.61,6.12 -25.95,0.86 -3.82,3.36 -14.43,-0.33 1.26,-5.04 -6.11,-6.45 -2.08,-7.38 -8.31,-2.24 -3.24,-12.94 -7.73,-9.86 -6,-2.39 -1.54,-3.51 5.96,-11.82 -1.98,-9.45 1.15,-10.42 -3.97,-4.64 5.12,-6.93 9.09,-11.61 1.99,-7.84 -1.9,-10.96 8.46,-0.87 -6.9,-15.87 18.66,-9.58 7.56,4.78 0.33,-15.11 5.68,-17.71 8.28,-8.18 -2.93,-2.39 3.16,-9.16 -1.43,-9.41 5.22,-1.09 9.13,3.3 16.48,-6.04 0.06,-9.3 8.91,-8.7 0.97,13.6 -3.46,7.22 6.61,6.16 -2.75,4.45 3.95,8.4 5.99,-1.48 6.62,3.87 4.83,7.2 6.91,-0.33 10.73,10.39 2.89,10.12 11.36,-5.38 15.16,5.3 7.44,4.88 8.04,-0.2 9.38,-6.24 8.33,5.58 4.17,-1.75 7.73,4.58 1.66,8.77 6.9,6.88 4.63,11.86 6.47,1.14 6.89,-7.14 12.49,8.32 11.27,2.78 4.76,-5.77 8.65,0.25 2.28,7.3 9.74,5.37 8.08,-2.18 27.18,10.01 -7.39,16.83 -16.76,16.38 -2.61,5.77 -8.94,36.57 -6,10.16 -0.49,8.66 3.53,6.23 -4.4,9.29 -2.24,21.71 4.57,5.64 -6.19,6.44 0.8,4.09 -8.35,6.52 -9.59,1.08 z"
     fill="#dadada"
     stroke="#ffffff"
     stroke-width="0.5"
     id="FR-GES"
     data-name="Grand Est" />
  <path
     d="m 418.65731,229.91609 4.15,5.09 2.59,22.93 7.16,8.91 5.22,2.37 0.96,8.79 11.77,6.56 -0.33,11.38 12.79,-1.06 2.65,-4.58 6.4,3.19 7.08,-0.34 1.31,5.63 6.25,3.4 2.82,8.52 9.79,1.76 6.26,-4.55 9.24,0.57 6.2,2.99 1.35,6.02 5.03,4.35 0.21,5.71 -5.21,6.19 -1.65,12.38 -11.62,2.94 4.98,7.53 0.69,8.25 -5.92,6.04 5.53,9.9 -4.23,9.86 7.63,7.57 3.28,13.84 -0.86,5.6 4.02,3.98 -3.11,22.45 -7.4,0.19 -4.77,4.62 -9.92,2.64 -8.8,5.83 2.99,10.31 -17.01,3.57 -5.37,9.41 -12.85,0.94 -7.34,-3.2 -9.36,1.68 -3.75,-3 -6.52,3.7 -10.69,-0.8 -7.41,7.82 -4.11,-5.21 -9.07,3.3 -0.44,-6.59 -4.54,-7.15 -8.33,-2.81 -8.53,-9.07 1.38,-9.52 -6.53,-6.08 -1.27,-5.92 -6.14,-5.26 -0.86,-6.91 -12.45,1.46 -4.49,2.89 -9.84,-6 0.79,-5.98 -14.93,-6.7 -1.75,-4.41 1.52,-11.58 7.04,-9.88 2.63,-11.73 -1.84,-3.87 4.19,-7.23 8.53,4.15 5.37,-7.42 8.85,-2.67 -0.7,-4.57 12.24,-11.37 -0.54,-6.83 5.9,-3.93 -2.03,-4.6 2.15,-14.78 -3.56,-6.12 -2.83,-10.59 2.15,-4.19 8.48,-3.18 1.74,-8.44 -0.94,-10.52 -4.99,-2.25 -2.81,-8.2 15.1,-6.54 5.81,-6.23 6.77,3.19 7.35,-0.33 1.98,-7.45 6.58,-3.8 z"
     fill="#dadada"
     stroke="#ffffff"
     stroke-width="0.5"
     id="FR-CVL"
     data-name="Centre-Val de Loire" />
  <path
     d="m 100.63731,385.80609 7.23,5.77 -5.28,3.61 z m 112.2,-124.84 5.59,14.71 9.01,2.04 6.71,-7.58 12.31,3.61 -0.75,9.46 2.4,8.65 -3.75,6.3 5.68,26.41 -9.28,3.83 -6.13,18.8 -9.46,-5.15 -15.65,6.43 -2.54,5.38 -20.97,1.57 -8.38,6.23 0.01,9.75 -14.7,7.13 -9.4,1.29 -3.46,-7.56 -20.48,3.76 -3.91,-4.63 -11.14,-4.52 -5.56,0.92 -10.900005,-11.51 -11.22,-1.05 -4.93,-6.77 -21.95,-2.69 -3.15,-4.36 -16.37,-2.22 -3.01,6.02 -11.8,0.02 0.64,-9.13 -4.22,-7.46 -9.9,-3.74 -9.7399998,-6.49 10.8499998,-1.17 9.1,-3.09 7.46,1.78 2.53,-4.09 -3.24,-7.44 -9.9,-3.52 -3.62,4.68 -7.3999998,-8.78 15.4199998,0.51 -5.16,-11.1 -8.8599998,4.68 -10.33999997,-4.45 -1.02000003,-13.43 4.89,-5.51 6.25,-0.66 17.7099998,-10.21 23.09,-3.5 1.96,3.81 7.78,0.01 2.13,-4.59 12.02,2.38 3.83,-11.22 7.14,-3.2 2.65,4 8.08,-4.07 15.730005,-3.01 2.8,8.97 15.17,13.35 -0.32,5.42 12.64,5.88 5.29,-6.34 9.02,-2.99 16.57,3.32 1.33,-3.75 8.12,-1.75 6.42,-5.21 4.45,6.47 6.05,3.45 z"
     fill="#dadada"
     stroke="#ffffff"
     stroke-width="0.5"
     id="FR-BRE"
     data-name="Bretagne" />
  <path
     d="m 795.71731,374.36609 -12.89,6.95 5.11,5.95 -4.09,12.88 -7.79,9.23 -9.12,6.58 -5.45,8.76 -8.35,1.83 -2.99,19.5 -12.24,9.01 -10.65,10.36 3.11,3.05 -6.16,12.56 -13.08,14.66 -9.65,0.38 -5.28,-6.13 -7.21,5.39 -6.83,-4.55 -13.44,-13.83 -2.26,-4.93 -9.71,2.39 -7.7,-3.37 -10.85,33.22 -6.73,-7.99 -11.75,-0.85 -6.59,-2.73 -1.19,8 -7.15,5.43 -4.91,-3.62 -7.02,-0.42 -4.92,2.85 -9.3,-4.36 0.06,-6.85 6.44,-2.87 0.81,-14.28 -8.73,-2.55 -8.52,-4.91 -2.97,-11.74 -8.18,-8.81 -5.99,9.45 -4.42,-6.02 -4.93,2.92 -5.2,-3.22 -4.65,3.97 -9.49,-7.3 -1.78,-4.27 3.11,-22.45 -4.02,-3.98 0.86,-5.6 -3.28,-13.84 -7.63,-7.57 4.23,-9.86 -5.53,-9.9 5.92,-6.04 -0.69,-8.25 -4.98,-7.53 11.62,-2.94 1.65,-12.38 5.21,-6.19 -0.21,-5.71 -5.03,-4.35 -1.35,-6.02 -6.2,-2.99 7.38,-8.7 v -11.04 l 13.86,-0.53 10.7,-2.58 6,2.39 7.73,9.86 3.24,12.94 8.31,2.24 2.08,7.38 6.11,6.45 -1.26,5.04 14.43,0.33 3.82,-3.36 25.95,-0.86 1.61,-6.12 14.36,2.32 7.37,8.48 5.97,11.31 -2.23,4.58 10.64,11.52 15.89,5.51 4.34,-8.57 18.13,-0.79 0.01,-13.55 10.51,-8.34 5.7,-7.28 13.56,-4.19 4.83,7.21 12.16,-1.33 5.97,7.5 8.62,-5.94 2.61,4.12 9.35,5.34 5.35,6.77 10,3.94 2.2,6.06 -2.87,7.93 5.41,0.92 z"
     fill="#dadada"
     stroke="#ffffff"
     stroke-width="0.5"
     id="FR-BFC"
     data-name="Bourgogne-Franche-Comté" />
  <path
     d="m 762.09731,606.46609 -3.53,-1.41 -14.27,5.1 -2.11,-5.03 -6.88,2.03 -1.75,8.13 8,1.65 2.14,13.61 -14.86,-0.89 -12.24,9.81 -8.31,0.1 -2.52,9.99 -9.48,3.91 -3.41,6.37 1.14,6.8 -10.45,-2.6 -1.83,11.65 4.21,3.47 9.11,0.39 1.51,13.49 2.06,2.41 -5.41,-2.59 -6.58,7.05 -8.06,-3.69 -1.87,-5.52 -13.59,-1.67 -6.19,-7.08 -16.13,7.5 -2.03,-8.02 -9.24,-1.57 -0.08,5.57 -9.65,-6.85 -7.58,-0.25 -6.97,2.94 -2.05,4.68 -8.53,-6.7 -9.48,-12.7 -2.38,-9.25 -3.32,-2.21 -2.83,-11 -7.87,-11.96 -6,-3.58 -11.23,6.55 -7.68,-14.5 -9.93,4.78 -6.15,0.54 -5.71,9.78 -4.32,14.67 -3,-3.34 0.02,-8.87 -3.27,-1.43 -1.92,-8.04 -8.2,-6.32 -8.87,9.03 -2.98,11.86 -5.11,6.53 -8.81,0.96 -1.72,-2.82 -10.38,3.16 -2.82,-5.62 2.81,-8.68 -5.39,-8 -1.99,-9.66 5.46,-2.41 3.42,-20.91 11.1,-10.97 1.81,-7.16 6.28,3.98 2.5,-17.6 -3.78,-4.01 4.06,-4.41 0.12,-6.52 -9.05,-11.05 11.26,-8.5 3.02,-11.68 -3.45,-4.93 1.05,-6.7 -5.6,-12.07 -12.07,-6.11 -1.46,-7.42 5.37,-9.41 17.01,-3.57 -2.99,-10.31 8.8,-5.83 9.92,-2.64 4.77,-4.62 7.4,-0.19 1.78,4.27 9.49,7.3 4.65,-3.97 5.2,3.22 4.93,-2.92 4.42,6.02 5.99,-9.45 8.18,8.81 2.97,11.74 8.52,4.91 8.73,2.55 -0.81,14.28 -6.44,2.87 -0.06,6.85 9.3,4.36 4.92,-2.85 7.02,0.42 4.91,3.62 7.15,-5.43 1.19,-8 6.59,2.73 11.75,0.85 6.73,7.99 10.85,-33.22 7.7,3.37 9.71,-2.39 2.26,4.93 13.44,13.83 6.83,4.55 7.21,-5.39 5.28,6.13 9.65,-0.38 13.08,-14.66 7.05,4.78 -4.54,7.94 -8.17,6.63 0.93,6.96 9,0.49 11.18,-8.26 -5,-8.4 2.14,-4.68 17.86,-9.41 10.93,0.24 9.24,2.67 -3.31,6.96 6.29,7.22 -4.07,7.42 -0.46,6.39 6.78,1.26 8.46,14.14 1.28,5.28 -6.91,7.37 -8.08,0.97 -0.89,10.69 7.25,7.1 5.66,1.14 0.02,12.9 6.67,3.38 5.04,5.72 -4.34,7.83 1.67,6.81 -8.95,3.41 -10.25,8.86 -5.43,-3.08 z"
     fill="#dadada"
     stroke="#ffffff"
     stroke-width="0.5"
     id="FR-ARA"
     data-name="Auvergne-Rhône-Alpes" />
</svg>
